<svg width="14" height="14" viewBox="0 0 14 14" fill="none" xmlns="http://www.w3.org/2000/svg">
<path d="M6.41733 5.83301H7.584V8.74967H6.41733V5.83301ZM6.41675 9.33301H7.58341V10.4997H6.41675V9.33301Z" fill="#9597A9"/>
<path d="M8.03138 2.44958C7.82838 2.06749 7.43289 1.83008 7.00005 1.83008C6.56722 1.83008 6.17172 2.06749 5.96872 2.45016L1.68822 10.5369C1.59323 10.7145 1.54618 10.9138 1.55171 11.1151C1.55723 11.3164 1.61514 11.5128 1.71972 11.6849C1.82279 11.8578 1.96917 12.0008 2.14441 12.0998C2.31965 12.1989 2.51769 12.2505 2.71897 12.2496H11.2811C11.6941 12.2496 12.0681 12.0384 12.281 11.6849C12.3854 11.5127 12.4432 11.3164 12.4487 11.1151C12.4542 10.9138 12.4073 10.7145 12.3125 10.5369L8.03138 2.44958ZM2.71897 11.0829L7.00005 2.99616L11.2841 11.0829H2.71897Z" fill="#9597A9"/>
</svg>
