<svg width="18" height="18" viewBox="0 0 18 18" fill="none" xmlns="http://www.w3.org/2000/svg">
<path d="M4.05005 1.5752H13.9501C14.7751 1.5752 15.4501 2.2502 15.4501 3.0752V4.7252C15.4501 5.3252 15.0751 6.0752 14.7001 6.4502L11.475 9.30019C11.025 9.67519 10.725 10.4252 10.725 11.0252V14.2502C10.725 14.7002 10.425 15.3002 10.05 15.5252L9.00005 16.2002C8.02505 16.8002 6.67505 16.1252 6.67505 14.9252V10.9502C6.67505 10.4252 6.37505 9.7502 6.07505 9.3752L3.22505 6.3752C2.85005 6.0002 2.55005 5.3252 2.55005 4.8752V3.1502C2.55005 2.2502 3.22505 1.5752 4.05005 1.5752Z" stroke="#68616D" stroke-width="1.5" stroke-miterlimit="10" stroke-linecap="round" stroke-linejoin="round"/>
<path d="M8.1975 1.5752L4.5 7.5002" stroke="#68616D" stroke-width="1.5" stroke-miterlimit="10" stroke-linecap="round" stroke-linejoin="round"/>
</svg>
