<svg width="14" height="14" viewBox="0 0 14 14" fill="none" xmlns="http://www.w3.org/2000/svg">
<path d="M7.00008 1.16699C3.78358 1.16699 1.16675 3.78383 1.16675 7.00033C1.16675 10.2168 3.78358 12.8337 7.00008 12.8337C10.2166 12.8337 12.8334 10.2168 12.8334 7.00033C12.8334 3.78383 10.2166 1.16699 7.00008 1.16699ZM7.00008 11.667C4.427 11.667 2.33341 9.57341 2.33341 7.00033C2.33341 4.42724 4.427 2.33366 7.00008 2.33366C9.57316 2.33366 11.6667 4.42724 11.6667 7.00033C11.6667 9.57341 9.57316 11.667 7.00008 11.667Z" fill="#9597A9"/>
<path d="M6.41675 6.41634H7.58341V9.91634H6.41675V6.41634ZM6.41675 4.08301H7.58341V5.24967H6.41675V4.08301Z" fill="#9597A9"/>
</svg>
