<svg width="25" height="14" viewBox="0 0 25 14" fill="none" xmlns="http://www.w3.org/2000/svg">
<path d="M5.80832 6.24402C5.67466 5.78196 5.51046 4.9762 5.51046 4.9762H5.49136C5.49136 4.9762 5.32716 5.78196 5.1935 6.24402L4.76962 7.67606H6.22456L5.80832 6.24402ZM23.5235 0.890137H12.831V13.1101H23.5235C24.0314 13.1101 24.44 12.7015 24.44 12.1936V1.80664C24.44 1.29874 24.0314 0.890137 23.5235 0.890137ZM22.607 5.47264C22.607 5.72467 22.4008 5.93089 22.1488 5.93089H21.7134C21.4499 6.83211 20.8847 7.74097 20.0828 8.60019C20.4036 8.84459 20.7358 9.07754 21.0795 9.28757C21.2895 9.41741 21.3583 9.68854 21.2361 9.90621L20.9344 10.437C20.8046 10.6623 20.5181 10.7349 20.2967 10.6012C19.8155 10.3034 19.3611 9.9864 18.9448 9.65035C18.5286 9.98258 18.078 10.3034 17.593 10.6012C17.3715 10.7349 17.0851 10.6623 16.9552 10.437L16.6536 9.90621C16.5314 9.69236 16.6001 9.41741 16.814 9.28757C17.1691 9.0699 17.5013 8.84077 17.8106 8.60019C17.509 8.27942 17.2417 7.95101 17.0087 7.61877C16.856 7.40111 16.9247 7.09942 17.15 6.96577L17.3982 6.81684L17.677 6.65263C17.8832 6.53043 18.1505 6.58771 18.288 6.78247C18.4789 7.04978 18.7004 7.31709 18.9525 7.58059C19.468 7.03832 19.8613 6.47697 20.0981 5.93089H15.7332C15.4812 5.93089 15.275 5.72467 15.275 5.47264V4.86164C15.275 4.6096 15.4812 4.40339 15.7332 4.40339H18.1772V3.79239C18.1772 3.54035 18.3835 3.33414 18.6355 3.33414H19.2465C19.4985 3.33414 19.7048 3.54035 19.7048 3.79239V4.40339H22.1488C22.4008 4.40339 22.607 4.6096 22.607 4.86164V5.47264ZM0 1.80664V12.1936C0 12.7015 0.408606 13.1101 0.9165 13.1101H11.609V0.890137H0.9165C0.408606 0.890137 0 1.29874 0 1.80664ZM2.24924 10.059L4.44502 3.60145C4.50994 3.41433 4.68179 3.29213 4.88036 3.29213H6.12146C6.31621 3.29213 6.49187 3.41815 6.55679 3.60145L8.75257 10.059C8.85186 10.3568 8.63419 10.6661 8.31724 10.6661H7.44274C7.34392 10.6661 7.24776 10.6341 7.16862 10.5749C7.08948 10.5157 7.03159 10.4325 7.00359 10.3377L6.64463 9.11954H4.34574L3.99823 10.3339C3.94095 10.5287 3.76147 10.6661 3.55907 10.6661H2.68458C2.37144 10.6661 2.14996 10.3568 2.24924 10.059Z" fill="#68616D"/>
</svg>
