<svg width="20" height="20" viewBox="0 0 20 20" fill="none" xmlns="http://www.w3.org/2000/svg">
<path d="M5 8.33464V6.66797C5 3.90964 5.83333 1.66797 10 1.66797C14.1667 1.66797 15 3.90964 15 6.66797V8.33464" stroke="#292D32" stroke-width="1.5" stroke-linecap="round" stroke-linejoin="round"/>
<path d="M9.99935 15.4167C11.1499 15.4167 12.0827 14.4839 12.0827 13.3333C12.0827 12.1827 11.1499 11.25 9.99935 11.25C8.84876 11.25 7.91602 12.1827 7.91602 13.3333C7.91602 14.4839 8.84876 15.4167 9.99935 15.4167Z" stroke="#292D32" stroke-width="1.5" stroke-linecap="round" stroke-linejoin="round"/>
<path d="M14.166 18.332H5.83268C2.49935 18.332 1.66602 17.4987 1.66602 14.1654V12.4987C1.66602 9.16536 2.49935 8.33203 5.83268 8.33203H14.166C17.4993 8.33203 18.3327 9.16536 18.3327 12.4987V14.1654C18.3327 17.4987 17.4993 18.332 14.166 18.332Z" stroke="#292D32" stroke-width="1.5" stroke-linecap="round" stroke-linejoin="round"/>
</svg>
