<svg width="20" height="20" viewBox="0 0 20 20" fill="none" xmlns="http://www.w3.org/2000/svg">
<path d="M17.4998 3.33301H2.49984C2.27882 3.33301 2.06686 3.42081 1.91058 3.57709C1.7543 3.73337 1.6665 3.94533 1.6665 4.16634V15.833C1.6665 16.054 1.7543 16.266 1.91058 16.4223C2.06686 16.5785 2.27882 16.6663 2.49984 16.6663H17.4998C17.7208 16.6663 17.9328 16.5785 18.0891 16.4223C18.2454 16.266 18.3332 16.054 18.3332 15.833V4.16634C18.3332 3.94533 18.2454 3.73337 18.0891 3.57709C17.9328 3.42081 17.7208 3.33301 17.4998 3.33301ZM16.6665 12.4997C16.0035 12.4997 15.3676 12.7631 14.8987 13.2319C14.4299 13.7007 14.1665 14.3366 14.1665 14.9997H5.83317C5.83317 14.3366 5.56978 13.7007 5.10094 13.2319C4.6321 12.7631 3.99621 12.4997 3.33317 12.4997V7.49967C3.99621 7.49967 4.6321 7.23628 5.10094 6.76744C5.56978 6.2986 5.83317 5.66272 5.83317 4.99967H14.1665C14.1665 5.66272 14.4299 6.2986 14.8987 6.76744C15.3676 7.23628 16.0035 7.49967 16.6665 7.49967V12.4997Z" fill="#FFB849"/>
<path d="M9.99984 6.66699C8.1615 6.66699 6.6665 8.16199 6.6665 10.0003C6.6665 11.8387 8.1615 13.3337 9.99984 13.3337C11.8382 13.3337 13.3332 11.8387 13.3332 10.0003C13.3332 8.16199 11.8382 6.66699 9.99984 6.66699ZM9.99984 11.667C9.08067 11.667 8.33317 10.9195 8.33317 10.0003C8.33317 9.08116 9.08067 8.33366 9.99984 8.33366C10.919 8.33366 11.6665 9.08116 11.6665 10.0003C11.6665 10.9195 10.919 11.667 9.99984 11.667Z" fill="#FFB849"/>
</svg>
