<svg width="11" height="13" viewBox="0 0 11 13" fill="none" xmlns="http://www.w3.org/2000/svg">
<path d="M6.75 0.25H1.75C1.41848 0.25 1.10054 0.381696 0.866116 0.616116C0.631696 0.850537 0.5 1.16848 0.5 1.5V11.5C0.5 11.8315 0.631696 12.1495 0.866116 12.3839C1.10054 12.6183 1.41848 12.75 1.75 12.75H9.25C9.58152 12.75 9.89946 12.6183 10.1339 12.3839C10.3683 12.1495 10.5 11.8315 10.5 11.5V4L6.75 0.25ZM3.93625 9.11875C3.74313 9.3 3.45812 9.38125 3.12625 9.38125C3.0619 9.38195 2.99758 9.37819 2.93375 9.37V10.2612H2.375V7.80125C2.62716 7.76363 2.88195 7.7465 3.13687 7.75C3.485 7.75 3.7325 7.81625 3.89937 7.94938C4.05813 8.07562 4.16562 8.2825 4.16562 8.52625C4.165 8.77125 4.08375 8.97813 3.93625 9.11875ZM6.31563 9.96562C6.05313 10.1838 5.65375 10.2875 5.16563 10.2875C4.87313 10.2875 4.66625 10.2688 4.52563 10.25V7.80188C4.77788 7.76506 5.03259 7.74771 5.2875 7.75C5.76062 7.75 6.06813 7.835 6.30813 8.01625C6.5675 8.20875 6.73 8.51562 6.73 8.95625C6.73 9.43313 6.55562 9.7625 6.31563 9.96562ZM8.625 8.23125H7.6675V8.80062H8.5625V9.25938H7.6675V10.2619H7.10125V7.76875H8.625V8.23125ZM6.75 4.625H6.125V1.5L9.25 4.625H6.75Z" fill="#68616D"/>
</svg>
