<svg width="18" height="17" viewBox="0 0 18 17" fill="none" xmlns="http://www.w3.org/2000/svg">
<path d="M15.6665 4.00033H13.1665V2.33366C13.1665 1.41449 12.419 0.666992 11.4998 0.666992H6.49984C5.58067 0.666992 4.83317 1.41449 4.83317 2.33366V4.00033H2.33317C1.414 4.00033 0.666504 4.74783 0.666504 5.66699V14.8337C0.666504 15.7528 1.414 16.5003 2.33317 16.5003H15.6665C16.5857 16.5003 17.3332 15.7528 17.3332 14.8337V5.66699C17.3332 4.74783 16.5857 4.00033 15.6665 4.00033ZM11.4998 2.33366V4.00033H6.49984V2.33366H11.4998ZM2.33317 5.66699H15.6665V9.00033H13.1665V7.33366H11.4998V9.00033H6.49984V7.33366H4.83317V9.00033H2.33317V5.66699ZM2.33317 14.8337V10.667H4.83317V12.3337H6.49984V10.667H11.4998V12.3337H13.1665V10.667H15.6673V14.8337H2.33317Z" fill="#9181DB"/>
</svg>
