<svg width="47" height="40" viewBox="0 0 47 40" fill="none" xmlns="http://www.w3.org/2000/svg">
<path d="M24.5737 9.8449L24.6662 9.87249L24.6719 9.86598C24.9777 9.90706 25.2749 9.72009 25.3649 9.41645C26.1369 6.82245 28.5695 5.00997 31.2793 5.00997C31.6306 5.00997 31.9155 4.72508 31.9155 4.37383C31.9155 4.02257 31.6306 3.7377 31.2793 3.7377C27.8986 3.7377 25.0578 5.98861 24.1457 9.05383C24.0453 9.39066 24.2372 9.74454 24.5737 9.8449Z" fill="#929292" stroke="#F9FFF9" stroke-width="0.3"/>
<path d="M38.0842 28.1942H35.1674C34.899 28.1942 34.6813 27.9765 34.6813 27.7081C34.6813 27.4397 34.899 27.222 35.1674 27.222H38.0842C42.1048 27.222 45.3761 23.9506 45.3761 19.93C45.3761 15.9094 42.1048 12.6381 38.0842 12.6381H38.014C37.8731 12.6381 37.739 12.577 37.6467 12.4704C37.5543 12.3638 37.5126 12.2224 37.5328 12.0828C37.5762 11.7801 37.598 11.4759 37.598 11.1797C37.598 7.6952 34.7628 4.85997 31.2783 4.85997C29.9227 4.85997 28.6299 5.2836 27.5396 6.08536C27.3 6.26141 26.9597 6.18328 26.8212 5.91972C23.7332 0.0396616 15.6678 -0.749971 11.4863 4.36517C9.72483 6.5201 9.03271 9.32333 9.58731 12.0554C9.64843 12.3572 9.41751 12.6384 9.1109 12.6384H8.9161C4.89549 12.6384 1.62416 15.9098 1.62416 19.9304C1.62416 23.951 4.89549 27.2223 8.9161 27.2223H11.8328C12.1013 27.2223 12.319 27.44 12.319 27.7085C12.319 27.9769 12.1013 28.1946 11.8328 28.1946H8.9161C4.3593 28.1946 0.651855 24.4872 0.651855 19.9304C0.651855 15.5014 4.15404 11.8748 8.53449 11.6748C8.12301 8.8403 8.90985 5.98116 10.7335 3.74987C15.2104 -1.72706 23.79 -1.11317 27.4169 4.99401C28.5739 4.26863 29.8978 3.8881 31.2782 3.8881C35.4998 3.8881 38.8451 7.48131 38.5524 11.6794C42.8925 11.9228 46.3482 15.5302 46.3482 19.93C46.3482 24.4872 42.6408 28.1942 38.084 28.1942L38.0842 28.1942Z" fill="#929292"/>
<path d="M11.1315 27.4337C11.1315 34.2179 16.6507 39.737 23.4349 39.737C30.2191 39.737 35.7383 34.2178 35.7383 27.4337C35.7383 20.6494 30.2191 15.1303 23.4349 15.1303C16.6506 15.1303 11.1315 20.6495 11.1315 27.4337ZM12.404 27.4337C12.404 21.3514 17.3526 16.4028 23.4349 16.4028C29.5171 16.4028 34.4658 21.3514 34.4658 27.4337C34.4658 33.5159 29.5171 38.4646 23.4349 38.4646C17.3527 38.4646 12.404 33.516 12.404 27.4337Z" fill="#929292" stroke="#F9FFF9" stroke-width="0.3"/>
<path d="M23.1508 32.3262C23.1508 32.6056 23.3773 32.8321 23.6567 32.8321C23.936 32.8321 24.1626 32.6059 24.1626 32.3262V23.0727C24.1626 22.7933 23.936 22.5668 23.6567 22.5668C23.3773 22.5668 23.1508 22.7934 23.1508 23.0727V32.3262Z" fill="#929292" stroke="#483EA8" stroke-width="0.3"/>
<path d="M23.657 23.7882L21.1677 26.2776L21.1676 26.2777L21.0615 26.1716L23.657 23.7882ZM23.657 23.7882L26.1465 26.2777C26.2452 26.3763 26.3751 26.4258 26.5042 26.4259L23.657 23.7882ZM24.0148 22.715C23.8172 22.5175 23.4967 22.5173 23.2992 22.7151L26.5042 26.4259C26.6331 26.4258 26.7632 26.3768 26.862 26.2776C27.0596 26.08 27.0595 25.7598 26.8619 25.5622L24.0148 22.715Z" fill="#929292" stroke="#483EA8" stroke-width="0.3"/>
</svg>
