<svg width="20" height="20" viewBox="0 0 20 20" fill="none" xmlns="http://www.w3.org/2000/svg">
<path d="M9.99984 1.66699C7.79843 1.69507 5.69508 2.58205 4.13832 4.13881C2.58157 5.69557 1.69458 7.79891 1.6665 10.0003C1.67679 11.2828 1.98294 12.5455 2.5611 13.6903C3.13926 14.835 3.97383 15.8309 4.99984 16.6003V16.667H5.08317C6.49416 17.7482 8.22221 18.3342 9.99984 18.3342C11.7775 18.3342 13.5055 17.7482 14.9165 16.667H14.9998V16.6003C16.0258 15.8309 16.8604 14.835 17.4386 13.6903C18.0167 12.5455 18.3229 11.2828 18.3332 10.0003C18.3051 7.79891 17.4181 5.69557 15.8614 4.13881C14.3046 2.58205 12.2012 1.69507 9.99984 1.66699ZM6.72484 15.7753C6.84649 15.2182 7.15496 14.7194 7.59907 14.3617C8.04319 14.004 8.59625 13.8088 9.1665 13.8087H10.8332C11.4034 13.8088 11.9565 14.004 12.4006 14.3617C12.8447 14.7194 13.1532 15.2182 13.2748 15.7753C12.2822 16.3593 11.1515 16.6673 9.99984 16.6673C8.84817 16.6673 7.71745 16.3593 6.72484 15.7753ZM14.6748 14.7003C14.3579 13.9428 13.8241 13.2958 13.1406 12.8406C12.4571 12.3855 11.6544 12.1424 10.8332 12.142H9.1665C8.34532 12.1424 7.54256 12.3855 6.85907 12.8406C6.17557 13.2958 5.64181 13.9428 5.32484 14.7003C4.70039 14.0862 4.20309 13.3549 3.86135 12.5485C3.51961 11.7421 3.34013 10.8762 3.33317 10.0003C3.35479 8.23893 4.0641 6.55577 5.30969 5.31018C6.55528 4.06459 8.23844 3.35527 9.99984 3.33366C11.7612 3.35527 13.4444 4.06459 14.69 5.31018C15.9356 6.55577 16.6449 8.23893 16.6665 10.0003C16.6595 10.8762 16.4801 11.7421 16.1383 12.5485C15.7966 13.3549 15.2993 14.0862 14.6748 14.7003Z" fill="#F0A0A0"/>
<path d="M10.0002 4.99991C9.55969 4.98964 9.12164 5.06885 8.71258 5.23273C8.30352 5.39662 7.93196 5.64177 7.62036 5.95337C7.30876 6.26496 7.06361 6.63653 6.89972 7.04559C6.73584 7.45464 6.65664 7.89269 6.6669 8.33324C6.65664 8.77379 6.73584 9.21184 6.89972 9.62089C7.06361 10.03 7.30876 10.4015 7.62036 10.7131C7.93196 11.0247 8.30352 11.2699 8.71258 11.4337C9.12164 11.5976 9.55969 11.6768 10.0002 11.6666C10.4408 11.6768 10.8788 11.5976 11.2879 11.4337C11.6969 11.2699 12.0685 11.0247 12.3801 10.7131C12.6917 10.4015 12.9369 10.03 13.1007 9.62089C13.2646 9.21184 13.3438 8.77379 13.3336 8.33324C13.3438 7.89269 13.2646 7.45464 13.1007 7.04559C12.9369 6.63653 12.6917 6.26496 12.3801 5.95337C12.0685 5.64177 11.6969 5.39662 11.2879 5.23273C10.8788 5.06885 10.4408 4.98964 10.0002 4.99991ZM10.0002 9.99991C9.77852 10.0106 9.55703 9.97485 9.34996 9.89489C9.1429 9.81492 8.95485 9.69253 8.7979 9.53558C8.64094 9.37862 8.51855 9.19057 8.43859 8.98351C8.35862 8.77645 8.32285 8.55495 8.33357 8.33324C8.32285 8.11153 8.35862 7.89003 8.43859 7.68297C8.51855 7.47591 8.64094 7.28786 8.7979 7.13091C8.95485 6.97395 9.1429 6.85156 9.34996 6.77159C9.55703 6.69163 9.77852 6.65586 10.0002 6.66657C10.2219 6.65586 10.4434 6.69163 10.6505 6.77159C10.8576 6.85156 11.0456 6.97395 11.2026 7.13091C11.3595 7.28786 11.4819 7.47591 11.5619 7.68297C11.6418 7.89003 11.6776 8.11153 11.6669 8.33324C11.6776 8.55495 11.6418 8.77645 11.5619 8.98351C11.4819 9.19057 11.3595 9.37862 11.2026 9.53558C11.0456 9.69253 10.8576 9.81492 10.6505 9.89489C10.4434 9.97485 10.2219 10.0106 10.0002 9.99991Z" fill="#F0A0A0"/>
</svg>
