<svg width="16" height="17" viewBox="0 0 16 17" fill="none" xmlns="http://www.w3.org/2000/svg">
<path d="M8 0.666992C7.17591 0.666992 6.37033 0.911363 5.68512 1.3692C4.99992 1.82704 4.46587 2.47779 4.1505 3.23914C3.83514 4.0005 3.75262 4.83828 3.91339 5.64653C4.07417 6.45479 4.471 7.19722 5.05372 7.77994C5.63644 8.36266 6.37887 8.75949 7.18712 8.92026C7.99538 9.08104 8.83315 8.99852 9.59451 8.68316C10.3559 8.36779 11.0066 7.83374 11.4645 7.14853C11.9223 6.46333 12.1667 5.65775 12.1667 4.83366C12.1667 3.72859 11.7277 2.66878 10.9463 1.88738C10.1649 1.10598 9.10507 0.666992 8 0.666992ZM8 7.33366C7.50555 7.33366 7.0222 7.18704 6.61107 6.91233C6.19995 6.63763 5.87952 6.24718 5.6903 5.79037C5.50108 5.33355 5.45157 4.83089 5.54804 4.34593C5.6445 3.86098 5.8826 3.41552 6.23223 3.06589C6.58186 2.71626 7.02732 2.47816 7.51227 2.3817C7.99723 2.28523 8.49989 2.33474 8.95671 2.52396C9.41352 2.71318 9.80397 3.03361 10.0787 3.44473C10.3534 3.85586 10.5 4.33921 10.5 4.83366C10.5 5.4967 10.2366 6.13259 9.76777 6.60143C9.29893 7.07027 8.66304 7.33366 8 7.33366ZM15.5 16.5003V15.667C15.5 14.1199 14.8854 12.6362 13.7915 11.5422C12.6975 10.4482 11.2138 9.83366 9.66667 9.83366H6.33333C4.78624 9.83366 3.30251 10.4482 2.20854 11.5422C1.11458 12.6362 0.5 14.1199 0.5 15.667V16.5003H2.16667V15.667C2.16667 14.5619 2.60565 13.5021 3.38705 12.7207C4.16846 11.9393 5.22826 11.5003 6.33333 11.5003H9.66667C10.7717 11.5003 11.8315 11.9393 12.6129 12.7207C13.3943 13.5021 13.8333 14.5619 13.8333 15.667V16.5003H15.5Z" fill="#4C40ED"/>
</svg>
